<?xml version="1.0" encoding="UTF-8"?>
<svg id="Layer_1" data-name="Layer 1" xmlns="http://www.w3.org/2000/svg" viewBox="0 0 423.26 104.04">
  <defs>
    <style>
      .cls-1 {
        fill: none;
      }

      .cls-2 {
        fill: #617eff;
      }

      .cls-3 {
        stroke: #000;
        stroke-linecap: round;
        stroke-linejoin: round;
      }
    </style>
  </defs>
  <g>
    <path class="cls-1" d="M84.1,70.37c9.33-9.44,9.23-24.72-.21-34.05-1.38-1.36-2.88-2.52-4.47-3.48,5.45,9.23,4.26,21.32-3.63,29.31-7.89,7.99-19.96,9.33-29.26,4,.98,1.58,2.15,3.07,3.53,4.43,9.44,9.33,24.72,9.23,34.05-.21Z"/>
    <path d="M41.55,62.37c1.08,1.06,2.23,2,3.44,2.82-5.01-9.37-3.6-21.28,4.26-29.24,7.86-7.96,19.75-9.51,29.19-4.62-.84-1.2-1.79-2.34-2.86-3.41-9.51-9.39-24.84-9.3-34.23.21-9.39,9.51-9.3,24.84.21,34.23Z"/>
    <path class="cls-3" d="M82.44,37.96c8.58,8.47,8.66,22.34.19,30.91s-22.34,8.66-30.91.19c-1.25-1.24-2.32-2.59-3.21-4.02-.47-.27-.94-.56-1.39-.87,1.05,1.96,2.4,3.79,4.06,5.44,8.89,8.78,23.21,8.69,31.99-.2s8.69-23.21-.2-31.99c-1.66-1.64-3.52-2.97-5.49-3.99.31.45.61.91.89,1.38,1.44.87,2.81,1.92,4.06,3.16Z"/>
    <path class="cls-2" d="M76.29,62.66c7.64-7.73,8.79-19.43,3.51-28.37-9.01-5.44-20.91-4.24-28.62,3.57-7.71,7.81-8.76,19.73-3.21,28.67,9,5.17,20.69,3.86,28.32-3.87Z"/>
  </g>
  <g>
    <path d="M115.76,69.6V29.91h12.25c3.06,0,5.57.51,7.51,1.53,1.95,1.02,3.37,2.39,4.28,4.11.91,1.72,1.36,3.68,1.36,5.87s-.47,4.05-1.42,5.81c-.95,1.76-2.4,3.16-4.37,4.2-1.97,1.04-4.52,1.56-7.65,1.56h-7.99v16.61h-3.97ZM119.73,49.75h7.99c3.21,0,5.57-.77,7.09-2.32,1.51-1.55,2.27-3.55,2.27-6.01s-.74-4.53-2.21-5.98c-1.47-1.45-3.88-2.18-7.2-2.18h-7.94v16.5ZM136.86,69.6l-8.9-17.86h4.54l9.13,17.86h-4.76Z"/>
    <path d="M159.76,70.28c-2.65,0-4.98-.62-7-1.87-2.02-1.25-3.61-3-4.76-5.24-1.15-2.25-1.73-4.89-1.73-7.91s.57-5.65,1.7-7.88c1.13-2.23,2.73-3.96,4.79-5.19,2.06-1.23,4.43-1.84,7.12-1.84s5.1.62,7.03,1.87,3.39,2.87,4.39,4.88c1,2,1.5,4.2,1.5,6.58v1.16c0,.4-.02.86-.06,1.39h-23.47v-3.35h19.67c-.11-2.91-1.03-5.16-2.75-6.75-1.72-1.59-3.88-2.38-6.49-2.38-1.66,0-3.23.39-4.71,1.16-1.47.78-2.66,1.91-3.54,3.4-.89,1.49-1.33,3.37-1.33,5.64v1.47c0,2.57.46,4.71,1.39,6.41.93,1.7,2.13,2.97,3.6,3.8,1.47.83,3.02,1.25,4.65,1.25,2.15,0,3.93-.48,5.33-1.45,1.4-.96,2.4-2.3,3.01-4h3.91c-.45,1.66-1.23,3.17-2.32,4.51-1.1,1.34-2.48,2.4-4.14,3.18-1.66.77-3.59,1.16-5.78,1.16Z"/>
    <path d="M179.83,69.6V28.77h3.97v40.82h-3.97Z"/>
    <path d="M194.97,34.27c-.79,0-1.47-.27-2.04-.82-.57-.55-.85-1.24-.85-2.07s.27-1.56.82-2.07c.55-.51,1.24-.77,2.07-.77.76,0,1.42.26,1.98.77.57.51.85,1.2.85,2.07s-.27,1.52-.82,2.07c-.55.55-1.22.82-2.01.82ZM192.99,69.6v-28.58h3.97v28.58h-3.97Z"/>
    <path d="M215.21,70.28c-2.31,0-4.22-.42-5.76-1.25-1.53-.83-2.66-1.91-3.4-3.23-.74-1.32-1.11-2.78-1.11-4.37,0-1.96.5-3.63,1.5-4.99,1-1.36,2.42-2.38,4.25-3.06,1.83-.68,3.94-1.02,6.32-1.02h7.71c0-1.85-.28-3.42-.85-4.71-.57-1.28-1.39-2.26-2.47-2.92-1.08-.66-2.45-.99-4.11-.99-1.97,0-3.65.49-5.05,1.47-1.4.98-2.27,2.42-2.61,4.31h-4.14c.23-2,.92-3.69,2.07-5.05,1.15-1.36,2.59-2.39,4.31-3.09,1.72-.7,3.52-1.05,5.42-1.05,2.61,0,4.75.5,6.44,1.5,1.68,1,2.93,2.37,3.74,4.11.81,1.74,1.22,3.74,1.22,6.01v17.63h-3.63l-.17-5.22c-.38.79-.86,1.55-1.45,2.27-.59.72-1.27,1.34-2.04,1.87-.78.53-1.67.96-2.69,1.28s-2.19.48-3.52.48ZM215.67,66.76c1.44,0,2.7-.28,3.8-.85,1.1-.57,2.04-1.32,2.83-2.27.79-.94,1.4-2.02,1.81-3.23.42-1.21.62-2.44.62-3.69v-1.02h-7.43c-2,0-3.61.25-4.82.74-1.21.49-2.08,1.15-2.61,1.98-.53.83-.79,1.8-.79,2.89s.26,2.05.77,2.86c.51.81,1.26,1.45,2.24,1.9.98.45,2.17.68,3.57.68Z"/>
    <path d="M251.33,70.28c-1.66,0-3.18-.26-4.56-.77-1.38-.51-2.58-1.21-3.6-2.1-1.02-.89-1.83-1.9-2.44-3.03l-.34,5.22h-3.63V28.77h3.97v17.41c.94-1.62,2.3-3.01,4.08-4.14,1.78-1.13,3.95-1.7,6.52-1.7,2.8,0,5.23.65,7.31,1.96,2.08,1.3,3.68,3.08,4.79,5.33,1.11,2.25,1.67,4.81,1.67,7.68s-.57,5.44-1.7,7.71c-1.13,2.27-2.73,4.05-4.79,5.33-2.06,1.28-4.49,1.93-7.29,1.93ZM251.05,66.82c2,0,3.75-.48,5.24-1.45,1.49-.96,2.66-2.31,3.52-4.03.85-1.72,1.28-3.73,1.28-6.04s-.43-4.37-1.28-6.1c-.85-1.72-2.03-3.05-3.54-4-1.51-.94-3.25-1.42-5.22-1.42s-3.71.47-5.25,1.42c-1.53.95-2.72,2.29-3.57,4.03-.85,1.74-1.28,3.76-1.28,6.07s.42,4.38,1.28,6.1c.85,1.72,2.04,3.05,3.57,4,1.53.95,3.28,1.42,5.25,1.42Z"/>
    <path d="M272.48,69.6V28.77h3.97v40.82h-3.97Z"/>
    <path d="M297.31,70.28c-2.65,0-4.98-.62-7-1.87-2.02-1.25-3.61-3-4.76-5.24-1.15-2.25-1.73-4.89-1.73-7.91s.57-5.65,1.7-7.88c1.13-2.23,2.73-3.96,4.79-5.19,2.06-1.23,4.43-1.84,7.12-1.84s5.1.62,7.03,1.87,3.39,2.87,4.39,4.88c1,2,1.5,4.2,1.5,6.58v1.16c0,.4-.02.86-.06,1.39h-23.47v-3.35h19.67c-.11-2.91-1.03-5.16-2.75-6.75-1.72-1.59-3.88-2.38-6.49-2.38-1.66,0-3.23.39-4.71,1.16-1.47.78-2.66,1.91-3.54,3.4-.89,1.49-1.33,3.37-1.33,5.64v1.47c0,2.57.46,4.71,1.39,6.41.93,1.7,2.13,2.97,3.6,3.8,1.47.83,3.02,1.25,4.65,1.25,2.15,0,3.93-.48,5.33-1.45,1.4-.96,2.4-2.3,3.01-4h3.91c-.45,1.66-1.23,3.17-2.32,4.51-1.1,1.34-2.48,2.4-4.14,3.18-1.66.77-3.59,1.16-5.78,1.16Z"/>
    <path d="M342.67,70.28c-2.31,0-4.22-.42-5.76-1.25-1.53-.83-2.66-1.91-3.4-3.23-.74-1.32-1.11-2.78-1.11-4.37,0-1.96.5-3.63,1.5-4.99,1-1.36,2.42-2.38,4.25-3.06,1.83-.68,3.94-1.02,6.32-1.02h7.71c0-1.85-.28-3.42-.85-4.71-.57-1.28-1.39-2.26-2.47-2.92-1.08-.66-2.45-.99-4.11-.99-1.97,0-3.65.49-5.05,1.47-1.4.98-2.27,2.42-2.61,4.31h-4.14c.23-2,.92-3.69,2.07-5.05,1.15-1.36,2.59-2.39,4.31-3.09,1.72-.7,3.52-1.05,5.42-1.05,2.61,0,4.75.5,6.44,1.5,1.68,1,2.93,2.37,3.74,4.11.81,1.74,1.22,3.74,1.22,6.01v17.63h-3.63l-.17-5.22c-.38.79-.86,1.55-1.45,2.27-.59.72-1.27,1.34-2.04,1.87-.78.53-1.67.96-2.69,1.28s-2.19.48-3.52.48ZM343.12,66.76c1.44,0,2.7-.28,3.8-.85,1.1-.57,2.04-1.32,2.83-2.27.79-.94,1.4-2.02,1.81-3.23.42-1.21.62-2.44.62-3.69v-1.02h-7.43c-2,0-3.61.25-4.82.74-1.21.49-2.08,1.15-2.61,1.98-.53.83-.79,1.8-.79,2.89s.26,2.05.77,2.86c.51.81,1.26,1.45,2.24,1.9.98.45,2.17.68,3.57.68Z"/>
    <path d="M366.77,34.27c-.79,0-1.47-.27-2.04-.82-.57-.55-.85-1.24-.85-2.07s.27-1.56.82-2.07c.55-.51,1.24-.77,2.07-.77.76,0,1.42.26,1.98.77.57.51.85,1.2.85,2.07s-.27,1.52-.82,2.07c-.55.55-1.22.82-2.01.82ZM364.78,69.6v-28.58h3.97v28.58h-3.97Z"/>
  </g>
</svg>